<svg width="120" height="121" viewBox="0 0 120 121" fill="none" xmlns="http://www.w3.org/2000/svg">
<g clip-path="url(#clip0_93_459)">
<g filter="url(#filter0_d_93_459)">
<path d="M70.0001 45.1062H50.0001C48.674 45.1062 47.4022 45.633 46.4645 46.5707C45.5269 47.5084 45.0001 48.7801 45.0001 50.1062V70.1062C45.0001 71.4323 45.5269 72.7041 46.4645 73.6417C47.4022 74.5794 48.674 75.1062 50.0001 75.1062H70.0001C71.3262 75.1062 72.5979 74.5794 73.5356 73.6417C74.4733 72.7041 75.0001 71.4323 75.0001 70.1062V50.1062C75.0001 48.7801 74.4733 47.5084 73.5356 46.5707C72.5979 45.633 71.3262 45.1062 70.0001 45.1062ZM65.0001 65.1062H55.0001V55.1062H65.0001V65.1062ZM105 65.1062C106.326 65.1062 107.598 64.5794 108.536 63.6417C109.473 62.7041 110 61.4323 110 60.1062C110 58.7801 109.473 57.5084 108.536 56.5707C107.598 55.633 106.326 55.1062 105 55.1062H95.0001V45.1062H105C106.326 45.1062 107.598 44.5794 108.536 43.6417C109.473 42.7041 110 41.4323 110 40.1062C110 38.7801 109.473 37.5084 108.536 36.5707C107.598 35.633 106.326 35.1062 105 35.1062H94.1001C93.3535 33.0092 92.1496 31.1047 90.5756 29.5307C89.0016 27.9567 87.0971 26.7528 85.0001 26.0062V15.1062C85.0001 13.7801 84.4733 12.5083 83.5356 11.5707C82.5979 10.633 81.3262 10.1062 80.0001 10.1062C78.674 10.1062 77.4022 10.633 76.4645 11.5707C75.5269 12.5083 75.0001 13.7801 75.0001 15.1062V25.1062H65.0001V15.1062C65.0001 13.7801 64.4733 12.5083 63.5356 11.5707C62.5979 10.633 61.3262 10.1062 60.0001 10.1062C58.674 10.1062 57.4022 10.633 56.4645 11.5707C55.5269 12.5083 55.0001 13.7801 55.0001 15.1062V25.1062H45.0001V15.1062C45.0001 13.7801 44.4733 12.5083 43.5356 11.5707C42.5979 10.633 41.3262 10.1062 40.0001 10.1062C38.674 10.1062 37.4022 10.633 36.4645 11.5707C35.5269 12.5083 35.0001 13.7801 35.0001 15.1062V26.0062C32.9031 26.7528 30.9985 27.9567 29.4246 29.5307C27.8506 31.1047 26.6467 33.0092 25.9001 35.1062H15.0001C13.674 35.1062 12.4022 35.633 11.4645 36.5707C10.5268 37.5084 10.0001 38.7801 10.0001 40.1062C10.0001 41.4323 10.5268 42.7041 11.4645 43.6417C12.4022 44.5794 13.674 45.1062 15.0001 45.1062H25.0001V55.1062H15.0001C13.674 55.1062 12.4022 55.633 11.4645 56.5707C10.5268 57.5084 10.0001 58.7801 10.0001 60.1062C10.0001 61.4323 10.5268 62.7041 11.4645 63.6417C12.4022 64.5794 13.674 65.1062 15.0001 65.1062H25.0001V75.1062H15.0001C13.674 75.1062 12.4022 75.633 11.4645 76.5707C10.5268 77.5083 10.0001 78.7801 10.0001 80.1062C10.0001 81.4323 10.5268 82.7041 11.4645 83.6417C12.4022 84.5794 13.674 85.1062 15.0001 85.1062H25.9001C26.6467 87.2032 27.8506 89.1077 29.4246 90.6817C30.9985 92.2557 32.9031 93.4596 35.0001 94.2062V105.106C35.0001 106.432 35.5269 107.704 36.4645 108.642C37.4022 109.579 38.674 110.106 40.0001 110.106C41.3262 110.106 42.5979 109.579 43.5356 108.642C44.4733 107.704 45.0001 106.432 45.0001 105.106V95.1062H55.0001V105.106C55.0001 106.432 55.5269 107.704 56.4645 108.642C57.4022 109.579 58.674 110.106 60.0001 110.106C61.3262 110.106 62.5979 109.579 63.5356 108.642C64.4733 107.704 65.0001 106.432 65.0001 105.106V95.1062H75.0001V105.106C75.0001 106.432 75.5269 107.704 76.4645 108.642C77.4022 109.579 78.674 110.106 80.0001 110.106C81.3262 110.106 82.5979 109.579 83.5356 108.642C84.4733 107.704 85.0001 106.432 85.0001 105.106V94.2062C87.0971 93.4596 89.0016 92.2557 90.5756 90.6817C92.1496 89.1077 93.3535 87.2032 94.1001 85.1062H105C106.326 85.1062 107.598 84.5794 108.536 83.6417C109.473 82.7041 110 81.4323 110 80.1062C110 78.7801 109.473 77.5083 108.536 76.5707C107.598 75.633 106.326 75.1062 105 75.1062H95.0001V65.1062H105ZM85.0001 80.1062C85.0001 81.4323 84.4733 82.7041 83.5356 83.6417C82.5979 84.5794 81.3262 85.1062 80.0001 85.1062H40.0001C38.674 85.1062 37.4022 84.5794 36.4645 83.6417C35.5269 82.7041 35.0001 81.4323 35.0001 80.1062V40.1062C35.0001 38.7801 35.5269 37.5084 36.4645 36.5707C37.4022 35.633 38.674 35.1062 40.0001 35.1062H80.0001C81.3262 35.1062 82.5979 35.633 83.5356 36.5707C84.4733 37.5084 85.0001 38.7801 85.0001 40.1062V80.1062Z" fill="#01C2E7"/>
</g>
</g>
<defs>
<filter id="filter0_d_93_459" x="6.10352e-05" y="0.106201" width="120" height="120" filterUnits="userSpaceOnUse" color-interpolation-filters="sRGB">
<feFlood flood-opacity="0" result="BackgroundImageFix"/>
<feColorMatrix in="SourceAlpha" type="matrix" values="0 0 0 0 0 0 0 0 0 0 0 0 0 0 0 0 0 0 127 0" result="hardAlpha"/>
<feOffset/>
<feGaussianBlur stdDeviation="5"/>
<feComposite in2="hardAlpha" operator="out"/>
<feColorMatrix type="matrix" values="0 0 0 0 0.00392157 0 0 0 0 0.760784 0 0 0 0 0.905882 0 0 0 1 0"/>
<feBlend mode="normal" in2="BackgroundImageFix" result="effect1_dropShadow_93_459"/>
<feBlend mode="normal" in="SourceGraphic" in2="effect1_dropShadow_93_459" result="shape"/>
</filter>
<clipPath id="clip0_93_459">
<rect width="120" height="120" fill="white" transform="translate(0 0.106201)"/>
</clipPath>
</defs>
</svg>
