<svg width="50" height="48" viewBox="0 0 50 48" fill="none" xmlns="http://www.w3.org/2000/svg">
<g clip-path="url(#clip0_72_427)">
<path d="M42.7606 22.4628L38.7335 8.41855C36.5604 10.5385 34.4323 11.8972 32.3492 12.4945C31.1024 12.852 29.9303 12.9249 28.8329 12.7132C27.0988 12.4045 25.5332 12.2242 24.1362 12.1725C22.7391 12.1207 21.3259 12.2998 19.8966 12.7096C17.2661 13.4639 14.479 15.3076 11.5354 18.2407L15.4513 31.8974C18.6841 29.1117 21.7298 27.309 24.5883 26.4893C25.4246 26.2495 26.2278 26.0808 26.998 25.9834C27.7681 25.8859 28.5698 25.8699 29.4031 25.9352C30.2364 26.0006 30.8893 26.0683 31.362 26.1384C31.8346 26.2085 32.5479 26.3289 33.5018 26.4994L34.232 26.6355C34.9969 26.7781 35.8127 26.7251 36.6794 26.4765C38.504 25.9533 40.5311 24.6154 42.7606 22.4628ZM6.9489 13.2641C7.10144 13.796 7.10786 14.3206 6.96816 14.8377C6.82847 15.3547 6.57519 15.8057 6.20833 16.1905L14.4849 45.0542C14.5459 45.267 14.5276 45.4614 14.43 45.6375C14.3323 45.8135 14.1771 45.932 13.9642 45.9931L12.5045 46.4116C12.2917 46.4727 12.0972 46.4544 11.9211 46.3569C11.745 46.2593 11.6265 46.1041 11.5655 45.8913L3.28894 17.0277C2.7739 16.8957 2.32014 16.6475 1.92766 16.283C1.53518 15.9185 1.26266 15.4703 1.11012 14.9383C0.879128 14.1327 0.967008 13.3632 1.37376 12.6297C1.78052 11.8963 2.38683 11.414 3.1927 11.1829C3.99858 10.9518 4.76833 11.0395 5.50196 11.446C6.23559 11.8525 6.7179 12.4585 6.9489 13.2641ZM40.9403 5.09632L45.9284 22.4921C46.0984 23.0848 45.9565 23.5943 45.5028 24.0205C45.3725 24.1401 45.2629 24.2456 45.1739 24.3369C42.3647 27.0505 39.8122 28.7365 37.5162 29.3948C36.1781 29.7785 34.9007 29.857 33.6838 29.6302L32.9536 29.4941C31.8367 29.2716 30.9794 29.1226 30.3818 29.0472C29.7843 28.9718 29.0293 28.9498 28.1168 28.9812C27.2043 29.0126 26.307 29.1547 25.4251 29.4076C23.8742 29.8523 22.1797 30.7001 20.3416 31.9509C18.5035 33.2017 16.9886 34.475 15.7969 35.7708C15.608 35.973 15.3767 36.1133 15.103 36.1918C14.8598 36.2616 14.599 36.2705 14.3209 36.2187C13.7515 36.0694 13.3862 35.7136 13.2249 35.1512L8.37408 18.2343C8.22154 17.7023 8.33736 17.2167 8.72155 16.7776C9.16221 16.3058 9.6664 15.8117 10.2341 15.2952C10.8018 14.7788 11.5552 14.1351 12.4942 13.3641C13.4333 12.5932 14.4848 11.8845 15.6488 11.2382C16.8128 10.5919 17.9498 10.1096 19.0598 9.79132C20.7628 9.303 22.4193 9.08297 24.0293 9.13123C25.6393 9.1795 27.4156 9.37745 29.3583 9.7251C30.0189 9.84821 30.7369 9.79858 31.5124 9.57622C33.3674 9.0443 35.4802 7.51733 37.8506 4.99532C38.1328 4.717 38.3314 4.52023 38.4465 4.40499C38.8481 4.02664 39.3238 3.90668 39.8737 4.04511C40.4322 4.21394 40.7877 4.56434 40.9403 5.09632Z" fill="#212A37"/>
</g>
<defs>
<clipPath id="clip0_72_427">
<rect width="41" height="36.4307" fill="white" transform="translate(0.273315 12.02) rotate(-16)"/>
</clipPath>
</defs>
</svg>
