<svg width="205" height="40" viewBox="0 0 205 40" fill="none" xmlns="http://www.w3.org/2000/svg">
<mask id="mask0_72_307" style="mask-type:luminance" maskUnits="userSpaceOnUse" x="0" y="0" width="205" height="40">
<path d="M204.81 0H0V40H204.81V0Z" fill="white"/>
</mask>
<g mask="url(#mask0_72_307)">
<path d="M55.3846 11.051C55.3846 10.7477 55.5146 10.4443 55.7313 10.2276C55.948 10.011 56.2514 9.88094 56.5547 9.88094H67.1289C67.3023 9.88094 67.4756 9.79427 67.6057 9.70759C67.7357 9.57758 67.779 9.40423 67.779 9.23088V8.79752C67.779 8.62417 67.6923 8.45082 67.6057 8.32081C67.4756 8.1908 67.3023 8.14746 67.1289 8.14746H54.8646C53.9979 8.14746 53.1744 8.49416 52.5677 9.10087C51.961 9.70759 51.6143 10.531 51.6143 11.3977V17.5082C51.6143 18.375 51.961 19.1984 52.5677 19.8051C53.1744 20.4118 53.9979 20.7585 54.8646 20.7585H63.3586C63.662 20.7585 63.9653 20.8885 64.182 21.1485C64.3987 21.3652 64.5287 21.6686 64.5287 21.9719V28.6458C64.5287 28.9492 64.3987 29.2526 64.182 29.4692C63.9653 29.6859 63.662 29.8159 63.3586 29.8159H53.2611C53.0878 29.8159 52.9144 29.9026 52.7844 29.9893C52.6544 30.1193 52.6111 30.2926 52.6111 30.466V30.8994C52.6111 31.0727 52.6977 31.2461 52.7844 31.3761C52.9144 31.5061 53.0878 31.5494 53.2611 31.5494H65.0054C65.4388 31.5494 65.8288 31.4627 66.2622 31.2894C66.6522 31.116 66.9989 30.8994 67.3023 30.596C67.6056 30.2926 67.8223 29.9459 67.9957 29.5559C68.169 29.1659 68.2557 28.7325 68.2557 28.2991V22.232C68.2557 21.3652 67.909 20.5418 67.3023 19.9351C66.6956 19.3284 65.8722 18.9817 65.0054 18.9817H56.5114C56.208 18.9817 55.9047 18.8517 55.688 18.635C55.4713 18.4183 55.3413 18.115 55.3413 17.8116V11.051H55.3846Z" fill="white"/>
<path d="M173.001 11.051C173.001 10.7477 173.131 10.4443 173.348 10.2276C173.565 10.011 173.868 9.88094 174.171 9.88094H184.745C184.919 9.88094 185.092 9.79427 185.222 9.70759C185.352 9.57758 185.396 9.40423 185.396 9.23088V8.79752C185.396 8.62417 185.309 8.45082 185.222 8.32081C185.092 8.1908 184.919 8.14746 184.745 8.14746H172.438C171.571 8.14746 170.748 8.49416 170.141 9.10087C169.534 9.70759 169.188 10.531 169.188 11.3977V17.5082C169.188 18.375 169.534 19.1984 170.141 19.8051C170.748 20.4118 171.571 20.7585 172.438 20.7585H180.932C181.235 20.7585 181.539 20.8885 181.755 21.1485C181.972 21.3652 182.102 21.6686 182.102 21.9719V28.6458C182.102 28.9492 181.972 29.2526 181.755 29.4692C181.539 29.6859 181.235 29.8159 180.932 29.8159H170.834C170.661 29.8159 170.488 29.9026 170.358 29.9893C170.228 30.1193 170.184 30.2926 170.184 30.466V30.8994C170.184 31.0727 170.271 31.2461 170.358 31.3761C170.488 31.5061 170.661 31.5494 170.834 31.5494H182.622C183.055 31.5494 183.445 31.4627 183.879 31.2894C184.269 31.116 184.615 30.8994 184.919 30.596C185.222 30.2926 185.439 29.9459 185.612 29.5559C185.786 29.1659 185.872 28.7325 185.872 28.2991V22.232C185.872 21.3652 185.526 20.5418 184.919 19.9351C184.312 19.3284 183.489 18.9817 182.622 18.9817H174.128C173.825 18.9817 173.521 18.8517 173.305 18.635C173.088 18.4183 172.958 18.115 172.958 17.8116V11.051H173.001Z" fill="white"/>
<path d="M83.1636 29.7291H77.8765C77.5731 29.7291 77.2698 29.5991 77.0531 29.3391C76.8364 29.1224 76.7064 28.8191 76.7064 28.5157V8.75406C76.7064 8.58071 76.6197 8.40737 76.5331 8.27736C76.403 8.14734 76.2297 8.104 76.0564 8.104H73.6295C73.4561 8.104 73.2828 8.19068 73.1528 8.27736C73.0228 8.40737 72.9794 8.58071 72.9794 8.75406V28.2123C72.9794 29.0791 73.3261 29.9025 73.9328 30.5092C74.5396 31.1159 75.363 31.4626 76.2297 31.4626H83.1636C83.337 31.4626 83.5103 31.3759 83.6403 31.2893C83.7703 31.1593 83.8137 30.9859 83.8137 30.8126V30.3792C83.8137 30.2925 83.8137 30.2058 83.7703 30.1192C83.727 30.0325 83.6837 29.9458 83.6403 29.9025C83.597 29.8591 83.5103 29.7725 83.4236 29.7725C83.337 29.7725 83.2503 29.7291 83.1636 29.7291Z" fill="white"/>
<path d="M121.994 29.7291H123.814C124.117 29.7291 124.42 29.5991 124.637 29.3391C124.854 29.1224 124.984 28.8191 124.984 28.5157V8.75406C124.984 8.58071 125.07 8.40737 125.157 8.27736C125.287 8.14734 125.461 8.104 125.634 8.104H128.104C128.277 8.104 128.451 8.19068 128.581 8.27736C128.711 8.40737 128.754 8.58071 128.754 8.75406V28.2123C128.754 29.0791 128.407 29.9025 127.801 30.5092C127.194 31.1159 126.371 31.4626 125.504 31.4626H122.037C121.864 31.4626 121.69 31.3759 121.56 31.2893C121.43 31.1593 121.387 30.9859 121.387 30.8126V30.3792C121.387 30.2925 121.387 30.2058 121.43 30.1192C121.474 30.0325 121.517 29.9458 121.56 29.9025C121.604 29.8591 121.69 29.7725 121.777 29.7725C121.82 29.7725 121.907 29.7291 121.994 29.7291Z" fill="white"/>
<path d="M114.28 29.7291H112.459C112.156 29.7291 111.853 29.5991 111.636 29.3391C111.419 29.1224 111.289 28.8191 111.289 28.5157V8.75406C111.289 8.58071 111.203 8.40737 111.116 8.27736C110.986 8.14734 110.813 8.104 110.639 8.104H108.169C107.996 8.104 107.822 8.19068 107.692 8.27736C107.562 8.40737 107.519 8.58071 107.519 8.75406V28.2123C107.519 29.0791 107.866 29.9025 108.472 30.5092C109.079 31.1159 109.903 31.4626 110.769 31.4626H114.236C114.41 31.4626 114.583 31.3759 114.713 31.2893C114.843 31.1593 114.886 30.9859 114.886 30.8126V30.3792C114.886 30.2925 114.886 30.2058 114.843 30.1192C114.8 30.0325 114.756 29.9458 114.713 29.9025C114.67 29.8591 114.583 29.7725 114.496 29.7725C114.453 29.7725 114.366 29.7291 114.28 29.7291Z" fill="white"/>
<path d="M96.7714 29.7291H91.6577C91.3543 29.7291 91.051 29.5991 90.8343 29.3391C90.6176 29.1224 90.4876 28.8191 90.4876 28.5157V8.75406C90.4876 8.58071 90.4009 8.40737 90.3142 8.27736C90.2276 8.14734 90.0109 8.104 89.8375 8.104H87.3673C87.194 8.104 87.0206 8.19068 86.8906 8.27736C86.7606 8.36403 86.7173 8.58071 86.7173 8.75406V28.2123C86.7173 29.0791 87.064 29.9025 87.6707 30.5092C88.2774 31.1159 89.1008 31.4626 89.9676 31.4626H96.7281C96.9015 31.4626 97.0748 31.3759 97.2048 31.2893C97.3348 31.1593 97.3782 30.9859 97.3782 30.8126V30.3792C97.3782 30.2925 97.3782 30.2058 97.3348 30.1192C97.2915 30.0325 97.2482 29.9458 97.2048 29.9025C97.1615 29.8591 97.0748 29.7725 96.9881 29.7725C96.9448 29.7725 96.8581 29.7291 96.7714 29.7291Z" fill="white"/>
<path d="M163.51 8.14746H161.04C160.867 8.14746 160.693 8.23413 160.563 8.32081C160.433 8.45082 160.39 8.62417 160.39 8.79752V30.8127C160.39 30.986 160.477 31.1594 160.563 31.2894C160.693 31.4194 160.867 31.4627 161.04 31.4627H163.51C163.684 31.4627 163.857 31.3761 163.987 31.2894C164.117 31.1594 164.16 30.986 164.16 30.8127V8.79752C164.16 8.71084 164.16 8.62416 164.117 8.53749C164.074 8.45082 164.03 8.36414 163.987 8.32081C163.944 8.27747 163.857 8.1908 163.77 8.1908C163.684 8.14746 163.597 8.14746 163.51 8.14746Z" fill="white"/>
<path d="M119.393 8.14746H116.923C116.75 8.14746 116.576 8.23413 116.446 8.32081C116.316 8.45082 116.273 8.62417 116.273 8.79752V30.8127C116.273 30.986 116.36 31.1594 116.446 31.2894C116.576 31.4194 116.75 31.4627 116.923 31.4627H119.393C119.567 31.4627 119.74 31.3761 119.87 31.2894C120 31.1594 120.043 30.986 120.043 30.8127V8.79752C120.043 8.71084 120.043 8.62416 120 8.53749C119.957 8.45082 119.913 8.36414 119.87 8.32081C119.827 8.27747 119.74 8.1908 119.653 8.1908C119.567 8.1908 119.48 8.14746 119.393 8.14746Z" fill="white"/>
<path d="M140.672 9.83748H138.852C138.548 9.83748 138.245 9.96749 138.028 10.1842C137.811 10.4009 137.681 10.7042 137.681 11.0076V30.8126C137.681 30.9859 137.595 31.1593 137.508 31.2893C137.378 31.4193 137.205 31.4626 137.031 31.4626H134.561C134.388 31.4626 134.214 31.3759 134.084 31.2893C133.954 31.1593 133.911 30.9859 133.911 30.8126V11.3543C133.911 10.4875 134.258 9.66414 134.865 9.05742C135.471 8.4507 136.295 8.104 137.161 8.104H140.628C140.802 8.104 140.975 8.19068 141.105 8.27736C141.235 8.40737 141.278 8.58071 141.278 8.75406V9.18743C141.278 9.36078 141.235 9.53413 141.105 9.66414C141.018 9.79415 140.845 9.83748 140.672 9.83748Z" fill="white"/>
<path d="M148.386 9.83748H150.206C150.509 9.83748 150.813 9.96749 151.029 10.1842C151.246 10.4009 151.376 10.7042 151.376 11.0076V30.8126C151.376 30.9859 151.463 31.1593 151.549 31.2893C151.679 31.4193 151.853 31.4626 152.026 31.4626H154.453C154.626 31.4626 154.8 31.3759 154.93 31.2893C155.06 31.1593 155.103 30.9859 155.103 30.8126V11.3543C155.103 10.4875 154.756 9.66414 154.15 9.05742C153.543 8.4507 152.719 8.104 151.853 8.104H148.386C148.212 8.104 148.039 8.19068 147.909 8.27736C147.779 8.40737 147.736 8.58071 147.736 8.75406V9.18743C147.736 9.2741 147.736 9.36078 147.779 9.44745C147.822 9.53413 147.866 9.6208 147.909 9.66414C147.952 9.70747 148.039 9.79415 148.126 9.79415C148.212 9.83749 148.299 9.83748 148.386 9.83748Z" fill="white"/>
<path d="M92.3511 9.83748H97.4649C97.7682 9.83748 98.0716 9.96749 98.2883 10.1842C98.505 10.4009 98.635 10.7042 98.635 11.0076V30.8126C98.635 30.9859 98.7216 31.1593 98.8083 31.2893C98.9383 31.4193 99.1117 31.4626 99.285 31.4626H101.755C101.929 31.4626 102.102 31.3759 102.232 31.2893C102.362 31.1593 102.405 30.9859 102.405 30.8126V11.3543C102.405 10.4875 102.059 9.66414 101.452 9.05742C100.845 8.4507 100.022 8.104 99.155 8.104H92.3944C92.2211 8.104 92.0478 8.19068 91.9177 8.27736C91.7877 8.40737 91.7444 8.58071 91.7444 8.75406V9.18743C91.7444 9.36078 91.7877 9.53412 91.9177 9.6208C92.0044 9.79414 92.1778 9.83748 92.3511 9.83748Z" fill="white"/>
<path d="M189.469 9.83748H193.326C193.63 9.83748 193.933 9.96749 194.15 10.1842C194.366 10.4009 194.496 10.7042 194.496 11.0076V30.8126C194.496 30.9859 194.583 31.1593 194.67 31.2893C194.8 31.4193 194.973 31.4626 195.146 31.4626H197.616C197.79 31.4626 197.963 31.3759 198.093 31.2893C198.223 31.1593 198.267 30.9859 198.267 30.8126V11.3543C198.267 10.4875 197.92 9.66414 197.313 9.05742C196.706 8.4507 195.883 8.104 195.016 8.104H189.469C189.296 8.104 189.122 8.19068 188.992 8.27736C188.862 8.40737 188.819 8.58071 188.819 8.75406V9.18743C188.819 9.36078 188.862 9.53412 188.992 9.6208C189.166 9.75081 189.296 9.83748 189.469 9.83748Z" fill="white"/>
<path d="M143.272 31.5062H145.742C145.916 31.5062 146.089 31.4195 146.219 31.3328C146.349 31.2028 146.392 31.0295 146.392 30.8561V8.84097C146.392 8.66762 146.306 8.49427 146.219 8.36426C146.089 8.23425 145.916 8.19092 145.742 8.19092H143.272C143.099 8.19092 142.925 8.27759 142.795 8.36426C142.665 8.49427 142.622 8.66762 142.622 8.84097V30.8561C142.622 30.9428 142.622 31.0295 142.665 31.1162C142.709 31.2028 142.752 31.2462 142.795 31.3328C142.839 31.3762 142.925 31.4629 143.012 31.4629C143.142 31.4629 143.229 31.5062 143.272 31.5062Z" fill="white"/>
<path d="M204.16 8.104H201.69C201.517 8.104 201.343 8.19068 201.213 8.27736C201.083 8.40737 201.04 8.58071 201.04 8.75406V11.0076C201.04 11.1809 201.127 11.3543 201.213 11.4843C201.343 11.6143 201.517 11.6576 201.69 11.6576H204.204C204.377 11.6576 204.55 11.571 204.68 11.4843C204.81 11.3543 204.854 11.1809 204.854 11.0076V8.75406C204.854 8.66738 204.854 8.58071 204.81 8.49404C204.767 8.40737 204.724 8.32069 204.637 8.27736C204.594 8.23402 204.507 8.19068 204.42 8.14734C204.334 8.10401 204.247 8.104 204.16 8.104Z" fill="white"/>
<path d="M25.5688 30.856C23.4453 33.3696 20.9318 35.4931 18.1149 37.1399C18.1149 37.1399 2.55689 29.0359 2.55689 8.32081C10.9643 7.93078 16.9014 4.16047 18.1149 2.94703C18.8516 3.68376 21.2351 5.28722 24.8754 6.58733V4.2038C22.3619 3.33706 20.065 1.90695 18.1582 0.043457C16.9448 1.25689 12.2644 5.76393 0.130022 6.37065C-1.08341 30.8127 18.1582 40.0435 18.1582 40.0435C22.3185 37.7899 25.9588 34.6697 28.8191 30.8994H25.5688V30.856Z" fill="white"/>
<path d="M30.2059 17.5947H24.5721V22.7085H30.2059V17.5947Z" fill="white"/>
<path d="M24.182 23.2285H22.5352V24.6586H24.182V23.2285Z" fill="white"/>
<path d="M27.8657 25.7422H25.3954V27.9957H27.8657V25.7422Z" fill="white"/>
<path d="M33.9328 26.0889H30.2492V29.3391H33.9328V26.0889Z" fill="white"/>
<path d="M43.3803 15.3413H38.96V19.3283H43.3803V15.3413Z" fill="white"/>
<path d="M42.9903 7.80078H40.9534V9.62093H42.9903V7.80078Z" fill="white"/>
<path d="M39.0033 8.92725H36.9664V10.7474H39.0033V8.92725Z" fill="white"/>
<path d="M39.0033 19.7183H36.4031V22.1018H39.0033V19.7183Z" fill="white"/>
<path d="M37.1398 23.9653H34.3662V26.4355H37.1398V23.9653Z" fill="white"/>
<path d="M34.8429 4.76709H31.766V7.49732H34.8429V4.76709Z" fill="white"/>
<path d="M28.9491 2.34033H26.2189V4.7672H28.9491V2.34033Z" fill="white"/>
<path d="M25.9155 7.10742H22.4052V10.2277H25.9155V7.10742Z" fill="white"/>
<path d="M22.6652 8.71094H22.4052V11.8312H22.6652V8.71094Z" fill="white"/>
<path d="M27.909 4.63721H27.6057V7.75747H27.909V4.63721Z" fill="white"/>
<path d="M33.8895 7.10742H33.6295V13.998H33.8895V7.10742Z" fill="white"/>
<path d="M41.7769 9.23096H41.5168V16.1215H41.7769V9.23096Z" fill="white"/>
<path d="M41.6468 9.36084H38.3532V9.6642H41.6468V9.36084Z" fill="white"/>
<path d="M39.1333 16.2515H35.7963V16.5115H39.1333V16.2515Z" fill="white"/>
<path d="M36.8798 19.9351H33.5428V20.1951H36.8798V19.9351Z" fill="white"/>
<path d="M32.6761 20.9316H29.3391V21.1917H32.6761V20.9316Z" fill="white"/>
<path d="M35.623 26.0889H32.3294V26.3922H35.623V26.0889Z" fill="white"/>
<path d="M38.6132 20.3253L38.3532 20.1519L39.2633 18.7651L39.48 18.9385L38.6132 20.3253Z" fill="white"/>
<path d="M23.922 23.7486L23.7053 23.5319L24.8754 22.3618L25.0921 22.5785L23.922 23.7486Z" fill="white"/>
<path d="M32.2427 14.4746H28.9491V14.7346H32.2427V14.4746Z" fill="white"/>
<path d="M26.8256 11.6143H23.4886V11.8743H26.8256V11.6143Z" fill="white"/>
<path d="M29.0791 8.9707H28.7758V15.8613H29.0791V8.9707Z" fill="white"/>
<path d="M27.8657 20.585H27.5623V27.4755H27.8657V20.585Z" fill="white"/>
<path d="M37.1398 19.8916H36.8364V25.092H37.1398V19.8916Z" fill="white"/>
<path d="M31.8527 7.49707H26.6956V12.1775H31.8527V7.49707Z" fill="white"/>
<path d="M29.5125 15.5146H28.1691V16.7281H29.5125V15.5146Z" fill="white"/>
<path d="M35.9263 13.2612H32.026V16.6848H35.9263V13.2612Z" fill="white"/>
<path d="M23.792 11.6143H19.7617V15.2979H23.792V11.6143Z" fill="white"/>
<path d="M34.2362 19.2417H32.0694V21.2352H34.2362V19.2417Z" fill="white"/>
<g opacity="0.8">
<path opacity="0.8" d="M18.1149 37.1396V2.94678C16.9014 4.16021 10.9209 7.93052 2.55691 8.32056C2.51358 29.0356 18.1149 37.1396 18.1149 37.1396Z" fill="white"/>
</g>
</g>
</svg>
