<svg width="48" height="49" viewBox="0 0 48 49" fill="none" xmlns="http://www.w3.org/2000/svg">
<path d="M43.42 18.2993C45.92 15.7993 44.78 12.8793 43.42 11.4593L37.42 5.45925C34.9 2.95925 32 4.09925 30.58 5.45925L27.18 8.87925H22C18.2 8.87925 16 10.8793 14.88 13.1793L6 22.0593V30.0593L4.58 31.4593C2.08 33.9793 3.22 36.8793 4.58 38.2993L10.58 44.2993C11.66 45.3793 12.82 45.7793 13.92 45.7793C15.34 45.7793 16.64 45.0793 17.42 44.2993L22.82 38.8793H30C33.4 38.8793 35.12 36.7593 35.74 34.6793C38 34.0793 39.24 32.3593 39.74 30.6793C42.84 29.8793 44 26.9393 44 24.8793V18.8793H42.82L43.42 18.2993ZM40 24.8793C40 25.7793 39.62 26.8793 38 26.8793H36V28.8793C36 29.7793 35.62 30.8793 34 30.8793H32V32.8793C32 33.7793 31.62 34.8793 30 34.8793H21.18L14.62 41.4393C14 42.0193 13.64 41.6793 13.42 41.4593L7.44 35.4993C6.86 34.8793 7.2 34.5193 7.42 34.2993L10 31.6993V23.6993L14 19.6993V22.8793C14 25.2993 15.6 28.8793 20 28.8793C24.4 28.8793 26 25.2993 26 22.8793H40V24.8793ZM40.58 15.4593L37.18 18.8793H22V22.8793C22 23.7793 21.62 24.8793 20 24.8793C18.38 24.8793 18 23.7793 18 22.8793V16.8793C18 15.9593 18.34 12.8793 22 12.8793H28.82L33.38 8.31925C34 7.73925 34.36 8.07925 34.58 8.29925L40.56 14.2593C41.14 14.8793 40.8 15.2393 40.58 15.4593Z" fill="#212A37"/>
</svg>
