<svg width="48" height="48" viewBox="0 0 48 48" fill="none" xmlns="http://www.w3.org/2000/svg">
<path d="M39 33C37.9319 33.0056 36.885 33.2994 35.97 33.8505L30.2505 28.1295C31.0654 26.9065 31.5002 25.4697 31.5002 24C31.5002 22.5303 31.0654 21.0935 30.2505 19.8705L34.071 16.05C35.0375 16.5155 36.1375 16.624 37.1762 16.3561C38.215 16.0882 39.1254 15.4613 39.7462 14.5864C40.367 13.7116 40.6581 12.6452 40.568 11.5763C40.4778 10.5074 40.0123 9.50482 39.2537 8.74629C38.4952 7.98775 37.4926 7.52217 36.4237 7.43203C35.3548 7.34189 34.2884 7.633 33.4136 8.2538C32.5387 8.87459 31.9118 9.785 31.6439 10.8238C31.3761 11.8625 31.4845 12.9625 31.95 13.929L28.1295 17.7495C26.9065 16.9346 25.4697 16.4998 24 16.4998C22.5303 16.4998 21.0935 16.9346 19.8705 17.7495L14.1495 12.0285C14.7004 11.1139 14.9942 10.0676 15 9C15 7.81332 14.6481 6.65328 13.9888 5.66658C13.3295 4.67989 12.3925 3.91085 11.2961 3.45673C10.1997 3.0026 8.99335 2.88378 7.82946 3.11529C6.66557 3.3468 5.59648 3.91825 4.75736 4.75736C3.91825 5.59648 3.3468 6.66557 3.11529 7.82946C2.88378 8.99335 3.0026 10.1997 3.45673 11.2961C3.91085 12.3925 4.67989 13.3295 5.66658 13.9888C6.65328 14.6481 7.81331 15 9 15C10.0682 14.9945 11.115 14.7006 12.03 14.1495L17.7495 19.8705C16.9346 21.0935 16.4998 22.5303 16.4998 24C16.4998 25.4697 16.9346 26.9065 17.7495 28.1295L12.0285 33.8505C11.1139 33.2997 10.0676 33.0059 9 33C7.81331 33 6.65328 33.3519 5.66658 34.0112C4.67989 34.6705 3.91085 35.6075 3.45673 36.7039C3.0026 37.8003 2.88378 39.0067 3.11529 40.1705C3.3468 41.3344 3.91825 42.4035 4.75736 43.2426C5.59648 44.0818 6.66557 44.6532 7.82946 44.8847C8.99335 45.1162 10.1997 44.9974 11.2961 44.5433C12.3925 44.0892 13.3295 43.3201 13.9888 42.3334C14.6481 41.3467 15 40.1867 15 39C14.9945 37.9319 14.7006 36.885 14.1495 35.97L19.8705 30.2505C20.6682 30.7822 21.561 31.155 22.5 31.3485V36.276C21.4992 36.6298 20.6557 37.3261 20.1186 38.2417C19.5814 39.1573 19.3853 40.2334 19.5648 41.2796C19.7443 42.3258 20.2879 43.2749 21.0995 43.9592C21.9111 44.6434 22.9385 45.0186 24 45.0186C25.0615 45.0186 26.0889 44.6434 26.9005 43.9592C27.7121 43.2749 28.2557 42.3258 28.4352 41.2796C28.6147 40.2334 28.4186 39.1573 27.8814 38.2417C27.3443 37.3261 26.5008 36.6298 25.5 36.276V31.3485C26.439 31.155 27.3318 30.7822 28.1295 30.2505L33.8505 35.9715C33.2996 36.8861 33.0058 37.9324 33 39C33 40.1867 33.3519 41.3467 34.0112 42.3334C34.6705 43.3201 35.6075 44.0892 36.7039 44.5433C37.8003 44.9974 39.0067 45.1162 40.1705 44.8847C41.3344 44.6532 42.4035 44.0818 43.2426 43.2426C44.0818 42.4035 44.6532 41.3344 44.8847 40.1705C45.1162 39.0067 44.9974 37.8003 44.5433 36.7039C44.0892 35.6075 43.3201 34.6705 42.3334 34.0112C41.3467 33.3519 40.1867 33 39 33ZM24 19.5C24.89 19.5 25.76 19.7639 26.5001 20.2584C27.2401 20.7529 27.8169 21.4557 28.1575 22.2779C28.4981 23.1002 28.5872 24.005 28.4135 24.8779C28.2399 25.7508 27.8113 26.5526 27.182 27.182C26.5526 27.8113 25.7508 28.2399 24.8779 28.4135C24.005 28.5872 23.1002 28.4981 22.2779 28.1575C21.4557 27.8169 20.7529 27.2401 20.2584 26.5001C19.7639 25.76 19.5 24.89 19.5 24C19.5012 22.8069 19.9757 21.663 20.8193 20.8193C21.663 19.9757 22.8069 19.5012 24 19.5ZM6 9C6 8.40666 6.17595 7.82664 6.50559 7.33329C6.83524 6.83994 7.30377 6.45543 7.85195 6.22836C8.40013 6.0013 9.00333 5.94189 9.58527 6.05765C10.1672 6.1734 10.7018 6.45912 11.1213 6.87868C11.5409 7.29824 11.8266 7.83279 11.9424 8.41473C12.0581 8.99667 11.9987 9.59988 11.7716 10.1481C11.5446 10.6962 11.1601 11.1648 10.6667 11.4944C10.1734 11.8241 9.59335 12 9 12C8.2046 11.9992 7.442 11.6829 6.87956 11.1204C6.31712 10.558 6.0008 9.79541 6 9ZM9 42C8.40666 42 7.82664 41.8241 7.33329 41.4944C6.83994 41.1648 6.45543 40.6962 6.22836 40.1481C6.0013 39.5999 5.94189 38.9967 6.05765 38.4147C6.1734 37.8328 6.45912 37.2982 6.87868 36.8787C7.29824 36.4591 7.83279 36.1734 8.41473 36.0576C8.99667 35.9419 9.59987 36.0013 10.1481 36.2284C10.6962 36.4554 11.1648 36.8399 11.4944 37.3333C11.8241 37.8266 12 38.4067 12 39C11.9992 39.7954 11.6829 40.558 11.1204 41.1204C10.558 41.6829 9.79541 41.9992 9 42ZM39 42C38.4067 42 37.8266 41.8241 37.3333 41.4944C36.8399 41.1648 36.4554 40.6962 36.2284 40.1481C36.0013 39.5999 35.9419 38.9967 36.0576 38.4147C36.1734 37.8328 36.4591 37.2982 36.8787 36.8787C37.2982 36.4591 37.8328 36.1734 38.4147 36.0576C38.9967 35.9419 39.5999 36.0013 40.1481 36.2284C40.6962 36.4554 41.1648 36.8399 41.4944 37.3333C41.8241 37.8266 42 38.4067 42 39C41.9988 39.7953 41.6824 40.5577 41.12 41.12C40.5577 41.6824 39.7953 41.9988 39 42Z" fill="white"/>
</svg>
