<svg width="120" height="121" viewBox="0 0 120 121" fill="none" xmlns="http://www.w3.org/2000/svg">
<g clip-path="url(#clip0_93_481)">
<g filter="url(#filter0_d_93_481)">
<path d="M107.466 43.3609C111.498 54.1921 111.703 66.077 108.047 77.0409C104.39 88.0047 97.0922 97.3874 87.3655 103.63C77.6388 109.872 66.069 112.599 54.5785 111.356C43.088 110.113 32.3687 104.976 24.2016 96.7984C15.0274 87.6545 9.70714 75.3419 9.33558 62.3943C8.96402 49.4468 13.5694 36.8493 22.2041 27.1943C30.8388 17.5393 42.8458 11.5613 55.7543 10.4904C68.6628 9.41956 81.4908 13.3373 91.5984 21.4375L101.02 12.0109C101.544 11.4877 102.165 11.0726 102.848 10.7894C103.532 10.5063 104.265 10.3605 105.005 10.3605C105.745 10.3605 106.477 10.5063 107.161 10.7894C107.845 11.0726 108.466 11.4877 108.989 12.0109C109.512 12.5341 109.927 13.1553 110.211 13.839C110.494 14.5226 110.639 15.2553 110.639 15.9953C110.639 16.7352 110.494 17.468 110.211 18.1516C109.927 18.8353 109.512 19.4564 108.989 19.9797L63.9891 64.9797C63.4658 65.5029 62.8447 65.9179 62.161 66.2011C61.4774 66.4843 60.7447 66.63 60.0047 66.63C59.2647 66.63 58.532 66.4843 57.8484 66.2011C57.1647 65.9179 56.5436 65.5029 56.0203 64.9797C55.4971 64.4564 55.082 63.8353 54.7989 63.1516C54.5157 62.468 54.3699 61.7353 54.3699 60.9953C54.3699 60.2553 54.5157 59.5226 54.7989 58.839C55.082 58.1553 55.4971 57.5341 56.0203 57.0109L67.2703 45.7609C64.0996 44.246 60.535 43.7588 57.0741 44.3672C53.6131 44.9755 50.4284 46.6492 47.9644 49.1545C45.5003 51.6599 43.8799 54.872 43.3291 58.3426C42.7784 61.8132 43.3249 65.3692 44.8923 68.5143C46.4596 71.6594 48.9698 74.2367 52.0724 75.8866C55.175 77.5365 58.7153 78.1767 62.1992 77.7178C65.6831 77.259 68.9369 75.7239 71.5065 73.3269C74.0761 70.9299 75.8332 67.7905 76.5328 64.3468C76.8275 62.8842 77.6911 61.5985 78.9336 60.7726C80.1762 59.9468 81.696 59.6483 83.1586 59.9429C84.6212 60.2376 85.9069 61.1012 86.7328 62.3438C87.5587 63.5863 87.8571 65.1061 87.5625 66.5687C86.3643 72.4711 83.303 77.8329 78.8293 81.8651C74.3555 85.8973 68.7055 88.3868 62.7108 88.9674C56.7161 89.548 50.6934 88.1889 45.529 85.0901C40.3646 81.9913 36.3314 77.3165 34.0228 71.7538C31.7143 66.1911 31.2524 60.0342 32.7052 54.1893C34.1579 48.3444 37.4486 43.1202 42.0928 39.2856C46.7371 35.451 52.4897 33.2085 58.5039 32.8882C64.5181 32.5679 70.4763 34.1866 75.5016 37.5062L83.5781 29.4578C75.9914 23.7918 66.6169 21.0495 57.1727 21.7336C47.7284 22.4176 38.847 26.4821 32.1559 33.1822C25.4649 39.8824 21.4124 48.7693 20.7412 58.2145C20.07 67.6597 22.8249 77.0304 28.5012 84.6095C34.1775 92.1885 42.3949 97.4681 51.6475 99.4809C60.9001 101.494 70.5682 100.105 78.8799 95.5685C87.1917 91.0323 93.5904 83.6528 96.9034 74.7823C100.216 65.9118 100.222 56.1445 96.9187 47.2703C96.6558 46.5765 96.5327 45.8375 96.5566 45.0959C96.5804 44.3544 96.7508 43.6248 97.0578 42.9494C97.3648 42.2739 97.8024 41.6659 98.3453 41.1602C98.8883 40.6546 99.526 40.2614 100.222 40.0033C100.917 39.7451 101.657 39.6271 102.398 39.6561C103.14 39.6851 103.868 39.8605 104.541 40.1721C105.215 40.4838 105.82 40.9256 106.322 41.472C106.824 42.0185 107.212 42.6589 107.466 43.3562V43.3609Z" fill="#00DDA4"/>
</g>
</g>
<defs>
<filter id="filter0_d_93_481" x="-0.685272" y="0.317017" width="121.332" height="121.332" filterUnits="userSpaceOnUse" color-interpolation-filters="sRGB">
<feFlood flood-opacity="0" result="BackgroundImageFix"/>
<feColorMatrix in="SourceAlpha" type="matrix" values="0 0 0 0 0 0 0 0 0 0 0 0 0 0 0 0 0 0 127 0" result="hardAlpha"/>
<feOffset/>
<feGaussianBlur stdDeviation="5"/>
<feComposite in2="hardAlpha" operator="out"/>
<feColorMatrix type="matrix" values="0 0 0 0 0 0 0 0 0 0.866667 0 0 0 0 0.643137 0 0 0 1 0"/>
<feBlend mode="normal" in2="BackgroundImageFix" result="effect1_dropShadow_93_481"/>
<feBlend mode="normal" in="SourceGraphic" in2="effect1_dropShadow_93_481" result="shape"/>
</filter>
<clipPath id="clip0_93_481">
<rect width="120" height="120" fill="white" transform="translate(0 0.985962)"/>
</clipPath>
</defs>
</svg>
