<svg width="48" height="48" viewBox="0 0 48 48" fill="none" xmlns="http://www.w3.org/2000/svg">
<path d="M31.7 24.85C32 24.65 32.15 24.3667 32.15 24C32.15 23.6333 32 23.35 31.7 23.15L20.55 16C20.2167 15.7667 19.8747 15.75 19.524 15.95C19.1733 16.15 18.9987 16.45 19 16.85V31.15C19 31.55 19.1753 31.85 19.526 32.05C19.8767 32.25 20.218 32.2333 20.55 32L31.7 24.85ZM10 42C8.9 42 7.958 41.608 7.174 40.824C6.39 40.04 5.99867 39.0987 6 38V10C6 8.9 6.392 7.958 7.176 7.174C7.96 6.39 8.90134 5.99867 10 6H38C39.1 6 40.042 6.392 40.826 7.176C41.61 7.96 42.0013 8.90134 42 10V38C42 39.1 41.608 40.042 40.824 40.826C40.04 41.61 39.0987 42.0013 38 42H10ZM10 38H38V10H10V38Z" fill="white"/>
</svg>
