<svg width="48" height="48" viewBox="0 0 48 48" fill="none" xmlns="http://www.w3.org/2000/svg">
<path d="M39.5556 38.5556V29.6667H35.1111V38.5556H30.6667L37.3333 45.2222L44 38.5556H39.5556ZM24.2222 38.5556H21.7778V43H17.3333V38.5556H12.8889C10.4444 38.5556 8.44444 36.5556 8.44444 34.1111V29.6667H4V25.2222H8.44444V20.7778H4V16.3333H8.44444V11.8889C8.44444 9.44444 10.4444 7.44444 12.8889 7.44444H17.3333V3H21.7778V7.44444H26.2222V3H30.6667V7.44444H35.1111C37.5556 7.44444 39.5556 9.44444 39.5556 11.8889V16.3333H44V20.7778H39.5556V23.2222C38.8889 23 38 23 37.3333 23C36.6667 23 35.7778 23 35.1111 23.2222V11.8889H12.8889V34.1111H24.2222C24 34.7778 24 35.6667 24 36.3333C24 37 24 37.8889 24.2222 38.5556ZM17.3333 29.6667H25.7778C26.8889 27.6667 28.6667 25.8889 30.6667 24.7778V16.3333H17.3333V29.6667ZM21.7778 20.7778H26.2222V25.2222H21.7778V20.7778Z" fill="white"/>
</svg>
