<svg width="80" height="28" viewBox="0 0 80 28" fill="none" xmlns="http://www.w3.org/2000/svg">
<g clip-path="url(#clip0_205_946)">
<path d="M20.9068 4.68664L14.3849 20.8143L14.4491 20.9906C14.5397 21.2021 14.6818 21.3875 14.8625 21.5299L18.815 11.7575C18.832 11.7142 18.8574 11.6748 18.8898 11.6413C18.9391 11.5908 19.0024 11.5562 19.0716 11.542C19.1408 11.5278 19.2126 11.5347 19.2778 11.5618C19.3214 11.579 19.361 11.6048 19.3945 11.6375C19.4281 11.6702 19.4547 11.7093 19.473 11.7524C19.4913 11.7955 19.5009 11.8419 19.5012 11.8887C19.5014 11.9355 19.4924 11.982 19.4746 12.0253L15.5491 21.7465C15.5376 21.7718 15.5192 21.7933 15.4959 21.8084C15.4727 21.8236 15.4456 21.8319 15.4179 21.8323H12.0966C11.5278 21.8364 10.9708 21.6701 10.4974 21.3548C10.024 21.0395 9.65586 20.5896 9.44046 20.0632L5.04526 9.18705C5.03727 9.16522 5.03458 9.1418 5.0374 9.11873C5.03987 9.09582 5.04797 9.07388 5.06097 9.05485C5.07366 9.03571 5.09077 9.0199 5.11084 9.00874C5.13093 8.99742 5.15339 8.99098 5.17643 8.98995H9.49067C9.51991 8.98974 9.54855 8.99827 9.5729 9.01447C9.59725 9.03066 9.61619 9.05376 9.6273 9.08081L12.4645 16.0615L16.6831 5.6342C16.7002 5.5905 16.7259 5.55066 16.7586 5.51704C16.7913 5.48342 16.8305 5.45671 16.8737 5.43847C16.917 5.42013 16.9634 5.41061 17.0104 5.41046C17.0572 5.41051 17.1036 5.41968 17.147 5.43745C17.1905 5.45481 17.2302 5.48058 17.2638 5.51328C17.3147 5.56268 17.3495 5.62625 17.3637 5.69571C17.3779 5.76517 17.3708 5.8373 17.3434 5.90269L12.8526 17.0193L13.2355 17.9716L19.0975 3.46205C16.1607 1.81592 12.7014 1.36835 9.44238 2.21286C6.18336 3.05737 3.37677 5.12861 1.60902 7.99383C-0.158733 10.859 -0.750871 14.2965 -0.0436735 17.5881C0.663524 20.8796 2.61534 23.7705 5.40396 25.6568C8.19258 27.5431 11.6022 28.2787 14.9205 27.7101C18.2388 27.1414 21.209 25.3125 23.2105 22.6054C25.2119 19.8982 26.0898 16.5224 25.6607 13.1832C25.2316 9.84399 23.5287 6.79979 20.9079 4.68664H20.9068ZM19.2081 2.01543H20.4378L19.7123 3.81457L13.6187 18.9342L14.0017 19.8869L20.3425 4.19783L21.1033 2.30783L21.9914 3.1594C22.003 3.17537 22.0195 3.18717 22.0383 3.19308C22.0572 3.19899 22.0774 3.19869 22.0961 3.19223C22.1148 3.18576 22.1309 3.17347 22.142 3.15717C22.1532 3.14087 22.1588 3.12142 22.1581 3.10168C22.158 3.08118 22.1524 3.0611 22.1417 3.04361L21.3806 1.57683L21.5016 1.24447C21.5723 1.05796 21.7185 0.558903 21.4513 0.453011C21.1842 0.34712 20.9472 0.800747 20.8665 0.987253L20.7156 1.30971L19.1528 1.81389C19.1334 1.82255 19.1169 1.83667 19.1053 1.85454C19.0938 1.87251 19.0875 1.89333 19.0872 1.91466C19.0885 1.92923 19.0927 1.94339 19.0995 1.95634C19.1097 1.97588 19.1254 1.99194 19.1448 2.00247C19.1642 2.013 19.1862 2.01751 19.2081 2.01543ZM44.6905 8.98073H42.4429C42.4249 8.98175 42.4073 8.98652 42.3913 8.99473C42.3751 9.00307 42.3608 9.0147 42.3493 9.02889C42.3377 9.04258 42.3287 9.05834 42.323 9.07535C42.3175 9.09231 42.3154 9.11018 42.3168 9.12795V20.2801C42.3154 20.3153 42.3277 20.3497 42.351 20.3761C42.3746 20.4024 42.4076 20.4186 42.4429 20.4212H44.6905C44.7257 20.4184 44.7584 20.4023 44.7819 20.376C44.8054 20.3497 44.8178 20.3153 44.8166 20.2801V9.13683C44.818 9.11893 44.8158 9.10092 44.8101 9.08389C44.8046 9.06676 44.7956 9.05095 44.7838 9.03743C44.7721 9.02344 44.7578 9.01184 44.7418 9.00327C44.7258 8.9953 44.7083 8.99054 44.6905 8.98927V8.98073ZM79.8671 17.9112H70.8451C70.8283 17.9105 70.8114 17.9133 70.7956 17.9194C70.7796 17.9252 70.7651 17.9344 70.7529 17.9464C70.7406 17.9581 70.7308 17.9722 70.7242 17.9878C70.7176 18.0034 70.7142 18.0202 70.7143 18.0372V19.1511C70.7249 19.4926 70.8705 19.8159 71.1192 20.0502C71.3678 20.2845 71.6992 20.4107 72.0407 20.401H79.8678C79.9018 20.4011 79.9344 20.388 79.9589 20.3645C79.9834 20.341 79.9978 20.3089 79.999 20.275V18.0471C79.9977 18.0133 79.9833 17.9812 79.9588 17.9578C79.9343 17.9343 79.9017 17.9213 79.8678 17.9214L79.8671 17.9112ZM79.8671 8.98073H70.8451C70.8282 8.97999 70.8113 8.9827 70.7954 8.98869C70.7795 8.99468 70.7651 9.00382 70.7528 9.01558C70.7406 9.02733 70.7309 9.04144 70.7243 9.05706C70.7176 9.07267 70.7143 9.08947 70.7143 9.10643V11.3609C70.715 11.3774 70.7188 11.3937 70.7256 11.4087C70.7327 11.4236 70.7426 11.4371 70.7546 11.4484C70.7792 11.4712 70.8117 11.4834 70.8451 11.4825H79.8671C79.9007 11.4835 79.9334 11.4712 79.958 11.4484C79.9701 11.4371 79.9799 11.4236 79.987 11.4087C79.9937 11.3936 79.9975 11.3774 79.9983 11.3609V9.11668C79.9971 9.08276 79.9827 9.05065 79.9582 9.02713C79.9337 9.00361 79.9011 8.99052 79.8671 8.99063V8.98073ZM79.8671 13.446H70.8451C70.8283 13.4453 70.8115 13.448 70.7956 13.4539C70.7798 13.4597 70.7653 13.4686 70.7529 13.4801C70.7406 13.4919 70.7309 13.5061 70.7242 13.5217C70.7176 13.5374 70.7142 13.5543 70.7143 13.5713V15.819C70.7142 15.8359 70.7176 15.8528 70.7242 15.8684C70.7308 15.884 70.7406 15.8981 70.7529 15.9098C70.7651 15.9218 70.7796 15.931 70.7956 15.9368C70.8114 15.9429 70.8283 15.9457 70.8451 15.945H79.8671C79.9011 15.9451 79.9337 15.932 79.9582 15.9085C79.9827 15.885 79.9971 15.8529 79.9983 15.819V13.6072C80.0013 13.5884 80.0001 13.5691 79.9949 13.5508C79.9895 13.5326 79.9803 13.5157 79.9679 13.5013C79.9555 13.4867 79.9399 13.4751 79.9225 13.4671C79.9051 13.4594 79.8862 13.4554 79.8671 13.4555V13.446ZM40.226 8.98073H37.842C37.8128 8.98025 37.7841 8.98864 37.7597 9.0048C37.7353 9.02096 37.7164 9.04413 37.7054 9.07125L34.6414 16.6763L31.5671 9.07125C31.5569 9.0447 31.5389 9.02185 31.5155 9.00569C31.4921 8.98954 31.4644 8.98084 31.4359 8.98073H29.0469C29.0231 8.98013 28.9996 8.98566 28.9785 8.99678C28.9579 9.00782 28.9403 9.02378 28.9273 9.04324C28.9143 9.06277 28.9063 9.08522 28.9041 9.1086C28.9019 9.13197 28.9055 9.15552 28.9147 9.17714L33.1845 19.7609C33.2651 19.9614 33.4046 20.1329 33.5846 20.2525C33.7647 20.3722 33.9767 20.4344 34.1929 20.4311H35.7403C35.7689 20.4317 35.7969 20.4233 35.8205 20.4072C35.8444 20.3905 35.8621 20.3665 35.8711 20.3388L40.3773 9.19559C40.3883 9.17178 40.3927 9.1455 40.3903 9.11941C40.3876 9.09345 40.378 9.06867 40.3626 9.04761C40.3472 9.02654 40.3264 9.00995 40.3025 8.99952C40.2784 8.98922 40.252 8.98557 40.226 8.98893V8.98073ZM53.9554 9.65092C53.8733 9.4515 53.7336 9.28115 53.554 9.16174C53.3745 9.04232 53.1633 8.97929 52.9477 8.98073H51.4003C51.3725 8.98116 51.3454 8.9901 51.3228 9.00635C51.3003 9.02242 51.2833 9.0451 51.2743 9.07125L46.7681 20.2152C46.7602 20.237 46.7575 20.2604 46.7602 20.2835C46.7632 20.3068 46.7717 20.329 46.7851 20.3484C46.7985 20.3677 46.8163 20.3835 46.8371 20.3945C46.8581 20.4056 46.8816 20.4114 46.9054 20.4113H49.2944C49.3226 20.4104 49.35 20.4014 49.3732 20.3853C49.3964 20.3693 49.4145 20.3468 49.4253 20.3207L52.4951 12.7255L55.5643 20.3207C55.5747 20.3472 55.5926 20.37 55.6158 20.3863C55.6392 20.4025 55.667 20.4112 55.6954 20.4113H58.0845C58.1199 20.4115 58.154 20.3985 58.1803 20.3748C58.2065 20.3511 58.2229 20.3184 58.2262 20.2832C58.2284 20.2599 58.2248 20.2364 58.2157 20.2148L53.9554 9.65092ZM68.411 8.99063H66.1996C66.1807 8.99061 66.1619 8.99445 66.1446 9.00191C66.1269 9.00912 66.111 9.01994 66.0978 9.03368C66.0847 9.04737 66.0745 9.06351 66.0677 9.08116C66.0609 9.0989 66.0578 9.11784 66.0585 9.13683V15.422C66.0585 16.0904 65.793 16.7315 65.3203 17.2041C64.8477 17.6767 64.2067 17.9423 63.5383 17.9423H60.1046C60.0676 17.9435 60.0325 17.9588 60.0063 17.985C59.9801 18.0112 59.9648 18.0463 59.9636 18.0833V20.3009C59.9647 20.338 59.98 20.3732 60.0063 20.3993C60.0325 20.4254 60.0676 20.4407 60.1046 20.442H64.2477C64.8161 20.4468 65.3797 20.3385 65.9059 20.1235C66.432 19.9085 66.9102 19.5911 67.3126 19.1896C67.715 18.7882 68.0336 18.3108 68.2498 17.7851C68.466 17.2595 68.5756 16.6961 68.5722 16.1278V9.13683C68.5723 9.11623 68.568 9.09585 68.5596 9.07706C68.5519 9.0584 68.5402 9.04162 68.5254 9.02787C68.5103 9.01397 68.4924 9.00349 68.4728 8.99712C68.4529 8.99053 68.4318 8.98832 68.411 8.99063Z" fill="white"/>
</g>
<defs>
<clipPath id="clip0_205_946">
<rect width="80" height="27.1254" fill="white" transform="translate(0 0.437317)"/>
</clipPath>
</defs>
</svg>
