<svg width="40" height="40" viewBox="0 0 40 40" fill="none" xmlns="http://www.w3.org/2000/svg">
<path d="M7.5 7.5C7.5 6.17392 8.02678 4.90215 8.96447 3.96447C9.90215 3.02678 11.1739 2.5 12.5 2.5H21.465C22.4592 2.50088 23.4124 2.89654 24.115 3.6L31.4025 10.885C32.105 11.588 32.4998 12.5411 32.5 13.535V32.5C32.5 33.8261 31.9732 35.0979 31.0355 36.0355C30.0979 36.9732 28.8261 37.5 27.5 37.5H12.5C11.1739 37.5 9.90215 36.9732 8.96447 36.0355C8.02678 35.0979 7.5 33.8261 7.5 32.5V7.5ZM12.5 5C11.837 5 11.2011 5.26339 10.7322 5.73223C10.2634 6.20107 10 6.83696 10 7.5V32.5C10 33.163 10.2634 33.7989 10.7322 34.2678C11.2011 34.7366 11.837 35 12.5 35H27.5C28.163 35 28.7989 34.7366 29.2678 34.2678C29.7366 33.7989 30 33.163 30 32.5V15H23.75C22.7554 15 21.8016 14.6049 21.0983 13.9017C20.3951 13.1984 20 12.2446 20 11.25V5H12.5ZM23.75 12.5H29.4825L22.5 5.5175V11.25C22.5 11.5815 22.6317 11.8995 22.8661 12.1339C23.1005 12.3683 23.4185 12.5 23.75 12.5ZM13.75 20C13.4185 20 13.1005 20.1317 12.8661 20.3661C12.6317 20.6005 12.5 20.9185 12.5 21.25C12.5 21.5815 12.6317 21.8995 12.8661 22.1339C13.1005 22.3683 13.4185 22.5 13.75 22.5H26.25C26.5815 22.5 26.8995 22.3683 27.1339 22.1339C27.3683 21.8995 27.5 21.5815 27.5 21.25C27.5 20.9185 27.3683 20.6005 27.1339 20.3661C26.8995 20.1317 26.5815 20 26.25 20H13.75ZM12.5 26.25C12.5 25.9185 12.6317 25.6005 12.8661 25.3661C13.1005 25.1317 13.4185 25 13.75 25H26.25C26.5815 25 26.8995 25.1317 27.1339 25.3661C27.3683 25.6005 27.5 25.9185 27.5 26.25C27.5 26.5815 27.3683 26.8995 27.1339 27.1339C26.8995 27.3683 26.5815 27.5 26.25 27.5H13.75C13.4185 27.5 13.1005 27.3683 12.8661 27.1339C12.6317 26.8995 12.5 26.5815 12.5 26.25ZM13.75 30C13.4185 30 13.1005 30.1317 12.8661 30.3661C12.6317 30.6005 12.5 30.9185 12.5 31.25C12.5 31.5815 12.6317 31.8995 12.8661 32.1339C13.1005 32.3683 13.4185 32.5 13.75 32.5H26.25C26.5815 32.5 26.8995 32.3683 27.1339 32.1339C27.3683 31.8995 27.5 31.5815 27.5 31.25C27.5 30.9185 27.3683 30.6005 27.1339 30.3661C26.8995 30.1317 26.5815 30 26.25 30H13.75Z" fill="#1D3D34"/>
</svg>
