<svg width="40" height="40" viewBox="0 0 40 40" fill="none" xmlns="http://www.w3.org/2000/svg">
<path d="M30 16.6667C30 16.2247 29.8244 15.8007 29.5119 15.4882C29.1993 15.1756 28.7754 15 28.3333 15H9.01667L12.85 11.1834C13.1638 10.8695 13.3402 10.4439 13.3402 10C13.3402 9.55619 13.1638 9.13053 12.85 8.81669C12.5362 8.50285 12.1105 8.32654 11.6667 8.32654C11.2228 8.32654 10.7972 8.50285 10.4833 8.81669L3.81668 15.4834C3.58541 15.7177 3.42875 16.0154 3.36646 16.3387C3.30417 16.662 3.33904 16.9965 3.46668 17.3C3.59171 17.6044 3.80404 17.8649 4.07691 18.0488C4.34977 18.2327 4.67097 18.3317 5.00001 18.3334H28.3333C28.7754 18.3334 29.1993 18.1578 29.5119 17.8452C29.8244 17.5326 30 17.1087 30 16.6667ZM36.5333 22.7C36.4083 22.3957 36.196 22.1351 35.9231 21.9512C35.6502 21.7673 35.329 21.6683 35 21.6667H11.6667C11.2246 21.6667 10.8007 21.8423 10.4882 22.1548C10.1756 22.4674 10 22.8913 10 23.3334C10 23.7754 10.1756 24.1993 10.4882 24.5119C10.8007 24.8244 11.2246 25 11.6667 25H30.9833L27.15 28.8167C26.9938 28.9716 26.8698 29.156 26.7852 29.3591C26.7006 29.5622 26.657 29.78 26.657 30C26.657 30.22 26.7006 30.4379 26.7852 30.641C26.8698 30.8441 26.9938 31.0284 27.15 31.1834C27.3049 31.3396 27.4893 31.4636 27.6924 31.5482C27.8955 31.6328 28.1133 31.6764 28.3333 31.6764C28.5534 31.6764 28.7712 31.6328 28.9743 31.5482C29.1774 31.4636 29.3617 31.3396 29.5167 31.1834L36.1833 24.5167C36.4146 24.2823 36.5713 23.9847 36.6336 23.6614C36.6958 23.3381 36.661 23.0035 36.5333 22.7Z" fill="#1D3D34"/>
</svg>
