<svg width="40" height="40" viewBox="0 0 40 40" fill="none" xmlns="http://www.w3.org/2000/svg">
<path d="M36.25 18.75C36.245 14.4418 34.5314 10.3114 31.485 7.265C28.4386 4.2186 24.3082 2.50496 20 2.5C15.6918 2.50496 11.5614 4.2186 8.515 7.265C5.46861 10.3114 3.75496 14.4418 3.75 18.75C3.74966 18.9388 3.79241 19.1252 3.87499 19.295C3.95758 19.4647 4.07782 19.6134 4.22656 19.7297C4.23363 19.7373 4.24149 19.7441 4.25 19.75L18.75 30.625V33.75H17.5C17.1685 33.75 16.8505 33.8817 16.6161 34.1161C16.3817 34.3505 16.25 34.6685 16.25 35C16.25 35.3315 16.3817 35.6495 16.6161 35.8839C16.8505 36.1183 17.1685 36.25 17.5 36.25H22.5C22.8315 36.25 23.1495 36.1183 23.3839 35.8839C23.6183 35.6495 23.75 35.3315 23.75 35C23.75 34.6685 23.6183 34.3505 23.3839 34.1161C23.1495 33.8817 22.8315 33.75 22.5 33.75H21.25V30.625L35.75 19.75C35.9052 19.6336 36.0313 19.4826 36.118 19.309C36.2048 19.1354 36.25 18.9441 36.25 18.75ZM33.6938 17.5H27.4734C27.2328 11.5703 25.3 7.74531 23.55 5.46875C26.2666 6.19915 28.6947 7.74343 30.508 9.89415C32.3213 12.0449 33.433 14.699 33.6938 17.5ZM20 5.3125C20.8372 6.05234 21.5672 6.90535 22.1688 7.84688C23.3578 9.6875 24.7578 12.7922 24.9719 17.5H15.0281C15.2422 12.7922 16.6422 9.6875 17.8313 7.85312C18.4324 6.90943 19.1623 6.0543 20 5.3125ZM24.125 20L20 27.4266L15.875 20H24.125ZM13.0141 20L16.0609 25.4828L8.75 20H13.0141ZM26.9859 20H31.25L23.9391 25.4828L26.9859 20ZM16.45 5.46875C14.7 7.74531 12.7672 11.5703 12.5266 17.5H6.30625C6.567 14.699 7.67869 12.0449 9.492 9.89415C11.3053 7.74343 13.7334 6.19915 16.45 5.46875Z" fill="#013742"/>
</svg>
