<svg width="40" height="40" viewBox="0 0 40 40" fill="none" xmlns="http://www.w3.org/2000/svg">
<g clip-path="url(#clip0_173_884)">
<path fill-rule="evenodd" clip-rule="evenodd" d="M3.33331 13.3333C3.33331 12.0072 3.8601 10.7354 4.79778 9.79772C5.73546 8.86004 7.00723 8.33325 8.33331 8.33325H31.6666C32.9927 8.33325 34.2645 8.86004 35.2022 9.79772C36.1399 10.7354 36.6666 12.0072 36.6666 13.3333V26.6666C36.6666 27.9927 36.1399 29.2644 35.2022 30.2021C34.2645 31.1398 32.9927 31.6666 31.6666 31.6666H28.0466C26.7212 31.6659 25.4504 31.1389 24.5133 30.2016L21.4633 27.1549C21.1512 26.8427 20.7281 26.6671 20.2866 26.6666H19.7133C19.2713 26.6667 18.8475 26.8423 18.535 27.1549L15.4883 30.1999C15.0243 30.6645 14.4732 31.0332 13.8667 31.2849C13.2602 31.5365 12.61 31.6662 11.9533 31.6666H8.33331C7.00723 31.6666 5.73546 31.1398 4.79778 30.2021C3.8601 29.2644 3.33331 27.9927 3.33331 26.6666V13.3333ZM8.33331 11.6666C7.89129 11.6666 7.46736 11.8422 7.1548 12.1547C6.84224 12.4673 6.66665 12.8912 6.66665 13.3333V26.6666C6.66665 27.1086 6.84224 27.5325 7.1548 27.8451C7.46736 28.1577 7.89129 28.3333 8.33331 28.3333H11.9533C12.3953 28.3332 12.8192 28.1575 13.1316 27.8449L16.1783 24.7983C17.1158 23.8605 18.3873 23.3335 19.7133 23.3333H20.2866C21.612 23.334 22.8829 23.8609 23.82 24.7983L26.87 27.8449C27.1821 28.1571 27.6052 28.3327 28.0466 28.3333H31.6666C32.1087 28.3333 32.5326 28.1577 32.8452 27.8451C33.1577 27.5325 33.3333 27.1086 33.3333 26.6666V13.3333C33.3333 12.8912 33.1577 12.4673 32.8452 12.1547C32.5326 11.8422 32.1087 11.6666 31.6666 11.6666H8.33331ZM9.99998 18.3333C9.99998 17.4492 10.3512 16.6014 10.9763 15.9762C11.6014 15.3511 12.4493 14.9999 13.3333 14.9999C14.2174 14.9999 15.0652 15.3511 15.6903 15.9762C16.3155 16.6014 16.6666 17.4492 16.6666 18.3333C16.6666 19.2173 16.3155 20.0652 15.6903 20.6903C15.0652 21.3154 14.2174 21.6666 13.3333 21.6666C12.4493 21.6666 11.6014 21.3154 10.9763 20.6903C10.3512 20.0652 9.99998 19.2173 9.99998 18.3333ZM23.3333 18.3333C23.3333 17.4492 23.6845 16.6014 24.3096 15.9762C24.9347 15.3511 25.7826 14.9999 26.6666 14.9999C27.5507 14.9999 28.3985 15.3511 29.0237 15.9762C29.6488 16.6014 30 17.4492 30 18.3333C30 19.2173 29.6488 20.0652 29.0237 20.6903C28.3985 21.3154 27.5507 21.6666 26.6666 21.6666C25.7826 21.6666 24.9347 21.3154 24.3096 20.6903C23.6845 20.0652 23.3333 19.2173 23.3333 18.3333Z" fill="#013742"/>
</g>
<defs>
<clipPath id="clip0_173_884">
<rect width="40" height="40" fill="white"/>
</clipPath>
</defs>
</svg>
