<svg width="40" height="40" viewBox="0 0 40 40" fill="none" xmlns="http://www.w3.org/2000/svg">
<path d="M35.3666 20C36.1963 19.0873 36.6593 17.9001 36.6666 16.6667C36.6666 15.3406 36.1399 14.0688 35.2022 13.1311C34.2645 12.1935 32.9927 11.6667 31.6666 11.6667H23.0333C23.2996 10.9136 23.3815 10.1078 23.2723 9.31654C23.1632 8.52532 22.866 7.77177 22.4058 7.11897C21.9456 6.46617 21.3357 5.93313 20.6271 5.56446C19.9186 5.1958 19.132 5.00224 18.3333 5H8.33331C7.00723 5 5.73546 5.52678 4.79778 6.46447C3.8601 7.40215 3.33331 8.67392 3.33331 10C3.34066 11.2334 3.80366 12.4206 4.63331 13.3333C3.81339 14.25 3.36009 15.4368 3.36009 16.6667C3.36009 17.8966 3.81339 19.0833 4.63331 20C3.81339 20.9167 3.36009 22.1034 3.36009 23.3333C3.36009 24.5632 3.81339 25.75 4.63331 26.6667C3.80366 27.5794 3.34066 28.7666 3.33331 30C3.33331 31.3261 3.8601 32.5979 4.79778 33.5355C5.73546 34.4732 7.00723 35 8.33331 35H31.6666C32.6296 34.9949 33.5705 34.7118 34.3765 34.1847C35.1824 33.6577 35.819 32.9092 36.2097 32.0291C36.6005 31.149 36.7288 30.1748 36.5793 29.2235C36.4297 28.2722 36.0086 27.3844 35.3666 26.6667C36.1866 25.75 36.6399 24.5632 36.6399 23.3333C36.6399 22.1034 36.1866 20.9167 35.3666 20ZM18.3333 31.6667H8.33331C7.89129 31.6667 7.46736 31.4911 7.1548 31.1785C6.84224 30.866 6.66665 30.442 6.66665 30C6.66665 29.558 6.84224 29.134 7.1548 28.8215C7.46736 28.5089 7.89129 28.3333 8.33331 28.3333H18.3333C18.7753 28.3333 19.1993 28.5089 19.5118 28.8215C19.8244 29.134 20 29.558 20 30C20 30.442 19.8244 30.866 19.5118 31.1785C19.1993 31.4911 18.7753 31.6667 18.3333 31.6667ZM18.3333 25H8.33331C7.89129 25 7.46736 24.8244 7.1548 24.5118C6.84224 24.1993 6.66665 23.7754 6.66665 23.3333C6.66665 22.8913 6.84224 22.4674 7.1548 22.1548C7.46736 21.8423 7.89129 21.6667 8.33331 21.6667H18.3333C18.7753 21.6667 19.1993 21.8423 19.5118 22.1548C19.8244 22.4674 20 22.8913 20 23.3333C20 23.7754 19.8244 24.1993 19.5118 24.5118C19.1993 24.8244 18.7753 25 18.3333 25ZM18.3333 18.3333H8.33331C7.89129 18.3333 7.46736 18.1577 7.1548 17.8452C6.84224 17.5326 6.66665 17.1087 6.66665 16.6667C6.66665 16.2246 6.84224 15.8007 7.1548 15.4882C7.46736 15.1756 7.89129 15 8.33331 15H18.3333C18.7753 15 19.1993 15.1756 19.5118 15.4882C19.8244 15.8007 20 16.2246 20 16.6667C20 17.1087 19.8244 17.5326 19.5118 17.8452C19.1993 18.1577 18.7753 18.3333 18.3333 18.3333ZM18.3333 11.6667H8.33331C7.89129 11.6667 7.46736 11.4911 7.1548 11.1785C6.84224 10.866 6.66665 10.442 6.66665 10C6.66665 9.55797 6.84224 9.13405 7.1548 8.82149C7.46736 8.50893 7.89129 8.33333 8.33331 8.33333H18.3333C18.7753 8.33333 19.1993 8.50893 19.5118 8.82149C19.8244 9.13405 20 9.55797 20 10C20 10.442 19.8244 10.866 19.5118 11.1785C19.1993 11.4911 18.7753 11.6667 18.3333 11.6667ZM32.8166 31.1833C32.6689 31.3392 32.4904 31.4626 32.2924 31.5458C32.0944 31.629 31.8814 31.6702 31.6666 31.6667H23.0333C23.433 30.5915 23.433 29.4085 23.0333 28.3333H31.6666C32.1087 28.3333 32.5326 28.5089 32.8452 28.8215C33.1577 29.134 33.3333 29.558 33.3333 30C33.3302 30.2217 33.2829 30.4405 33.1942 30.6437C33.1055 30.8469 32.9771 31.0304 32.8166 31.1833ZM32.8166 24.5167C32.6689 24.6725 32.4904 24.7959 32.2924 24.8791C32.0944 24.9623 31.8814 25.0035 31.6666 25H23.0333C23.433 23.9248 23.433 22.7418 23.0333 21.6667H31.6666C32.1087 21.6667 32.5326 21.8423 32.8452 22.1548C33.1577 22.4674 33.3333 22.8913 33.3333 23.3333C33.3302 23.555 33.2829 23.7739 33.1942 23.9771C33.1055 24.1803 32.9771 24.3637 32.8166 24.5167ZM32.8166 17.85C32.6689 18.0058 32.4904 18.1293 32.2924 18.2125C32.0944 18.2957 31.8814 18.3368 31.6666 18.3333H23.0333C23.433 17.2582 23.433 16.0752 23.0333 15H31.6666C32.1087 15 32.5326 15.1756 32.8452 15.4882C33.1577 15.8007 33.3333 16.2246 33.3333 16.6667C33.3302 16.8884 33.2829 17.1072 33.1942 17.3104C33.1055 17.5136 32.9771 17.697 32.8166 17.85Z" fill="#013742"/>
</svg>
