<svg width="40" height="40" viewBox="0 0 40 40" fill="none" xmlns="http://www.w3.org/2000/svg">
<path d="M15 19.9475V8.33337C15 7.00729 15.5268 5.73552 16.4645 4.79784C17.4021 3.86016 18.6739 3.33337 20 3.33337C21.3261 3.33337 22.5979 3.86016 23.5355 4.79784C24.4732 5.73552 25 7.00729 25 8.33337V10.005M25 20.0025V31.6667C25 32.9928 24.4732 34.2646 23.5355 35.2022C22.5979 36.1399 21.3261 36.6667 20 36.6667C18.6739 36.6667 17.4021 36.1399 16.4645 35.2022C15.5268 34.2646 15 32.9928 15 31.6667V29.975" stroke="#1D3D34" stroke-width="3.33333" stroke-linecap="round"/>
<path d="M20 25H8.31998C5.56665 25 3.33331 22.7617 3.33331 20C3.33331 17.2383 5.56665 15 8.31998 15H9.99081M20 15H31.6575C32.9847 14.9989 34.2581 15.525 35.1975 16.4627C36.1369 17.4003 36.6653 18.6727 36.6666 20C36.6666 22.7617 34.4241 25 31.6575 25H30.055" stroke="#1D3D34" stroke-width="3.33333" stroke-linecap="round"/>
</svg>
