<svg width="40" height="40" viewBox="0 0 40 40" fill="none" xmlns="http://www.w3.org/2000/svg">
<path d="M36.1833 14.5167C38.2667 12.4334 37.3167 10 36.1833 8.81671L31.1833 3.81671C29.0833 1.73338 26.6667 2.68338 25.4833 3.81671L22.65 6.66671H18.3333C15.1667 6.66671 13.3333 8.33338 12.4 10.25L4.99998 17.65V24.3167L3.81665 25.4834C1.73332 27.5834 2.68332 30 3.81665 31.1834L8.81665 36.1834C9.71665 37.0834 10.6833 37.4167 11.6 37.4167C12.7833 37.4167 13.8667 36.8334 14.5167 36.1834L19.0167 31.6667H25C27.8333 31.6667 29.2667 29.9 29.7833 28.1667C31.6667 27.6667 32.7 26.2334 33.1167 24.8334C35.7 24.1667 36.6667 21.7167 36.6667 20V15H35.6833L36.1833 14.5167ZM33.3333 20C33.3333 20.75 33.0167 21.6667 31.6667 21.6667H30V23.3334C30 24.0834 29.6833 25 28.3333 25H26.6667V26.6667C26.6667 27.4167 26.35 28.3334 25 28.3334H17.65L12.1833 33.8C11.6667 34.2834 11.3667 34 11.1833 33.8167L6.19998 28.85C5.71665 28.3334 5.99998 28.0334 6.18332 27.85L8.33332 25.6834V19.0167L11.6667 15.6834V18.3334C11.6667 20.35 13 23.3334 16.6667 23.3334C20.3333 23.3334 21.6667 20.35 21.6667 18.3334H33.3333V20ZM33.8167 12.15L30.9833 15H18.3333V18.3334C18.3333 19.0834 18.0167 20 16.6667 20C15.3167 20 15 19.0834 15 18.3334V13.3334C15 12.5667 15.2833 10 18.3333 10H24.0167L27.8167 6.20004C28.3333 5.71671 28.6333 6.00004 28.8167 6.18338L33.8 11.15C34.2833 11.6667 34 11.9667 33.8167 12.15Z" fill="#1D3D34"/>
</svg>
